# xmcd
#
# Track frame offsets: 
#        150
#        17895
#        32224
#        46029
#        63080
#        84986
#        102745
#        117251
#        138461
#        156088
#        177292
#        193992
#        212792
#        231470
#
# Disc length: 3310 seconds
#
# Revision: 0
# Processed by: cddbd v1.5.2PL0 Copyright (c) Steve Scherf et al.
# Submitted via: ExactAudioCopy v1.0b1
#
DISCID=c50cec0e
DTITLE=周杰伦 - 超时代Live CD
DYEAR=2011
DGENRE=Pop
TTITLE0=01.龙战骑士
TTITLE1=02.跨时代
TTITLE2=03.蛇舞
TTITLE3=04.爱在西元前
TTITLE4=05.我不配
TTITLE5=06.威廉古堡
TTITLE6=07.魔术先生
TTITLE7=08.黑色幽默
TTITLE8=09.想你就写信
TTITLE9=10.你是我的OK绷
TTITLE10=11.稻香
TTITLE11=12.阳光宅男
TTITLE12=13.龙卷风
TTITLE13=14.说好的幸福呢+淘汰+青花瓷
EXTD=
EXTT0=
EXTT1=
EXTT2=
EXTT3=
EXTT4=
EXTT5=
EXTT6=
EXTT7=
EXTT8=
EXTT9=
EXTT10=
EXTT11=
EXTT12=
EXTT13=
PLAYORDER=
